<svg xmlns="http://www.w3.org/2000/svg" xmlns:xlink="http://www.w3.org/1999/xlink" width="500" zoomAndPan="magnify" viewBox="0 0 375 374.999991" height="500" preserveAspectRatio="xMidYMid meet" version="1.0"><defs><g/></defs><g fill="#404040" fill-opacity="1"><g transform="translate(71.58196, 215.463276)"><g><path d="M 31.09375 -57.515625 C 51.21875 -57.515625 61.28125 -47.925781 61.28125 -28.75 C 61.28125 -9.582031 51.21875 0 31.09375 0 L 6.1875 0 L 6.1875 -57.515625 Z M 24.65625 -13.796875 L 30.765625 -13.796875 C 38.503906 -13.796875 42.375 -17.945312 42.375 -26.25 L 42.375 -31.265625 C 42.375 -39.566406 38.503906 -43.71875 30.765625 -43.71875 L 24.65625 -43.71875 Z M 24.65625 -13.796875 "/></g></g></g><g fill="#404040" fill-opacity="1"><g transform="translate(145.798215, 215.463276)"><g><path d="M 5.59375 -49.328125 L 5.59375 -60.609375 L 22.234375 -60.609375 L 22.234375 -49.328125 Z M 5.59375 0 L 5.59375 -44.140625 L 22.234375 -44.140625 L 22.234375 0 Z M 5.59375 0 "/></g></g></g><g fill="#404040" fill-opacity="1"><g transform="translate(182.823574, 215.463276)"><g><path d="M 49.40625 0 L 41.96875 -35.03125 L 41.625 -35.03125 L 34.1875 0 L 13.875 0 L 0.421875 -57.515625 L 19.640625 -57.515625 L 26.25 -24.90625 L 26.578125 -24.90625 L 33.109375 -57.515625 L 51.328125 -57.515625 L 58.265625 -24.90625 L 58.59375 -24.90625 L 64.78125 -57.515625 L 83.171875 -57.515625 L 69.71875 0 Z M 49.40625 0 "/></g></g></g><g fill="#404040" fill-opacity="1"><g transform="translate(275.593513, 215.463276)"><g><path d="M 5.59375 -49.328125 L 5.59375 -60.609375 L 22.234375 -60.609375 L 22.234375 -49.328125 Z M 5.59375 0 L 5.59375 -44.140625 L 22.234375 -44.140625 L 22.234375 0 Z M 5.59375 0 "/></g></g></g><path stroke-linecap="butt" transform="matrix(-1.193931, 0, 0, -1.193931, 374.99998, 127.079816)" fill="none" stroke-linejoin="miter" d="M -0.0000168561 5.00066 L 84.434195 5.00066 " stroke="#404040" stroke-width="10" stroke-opacity="1" stroke-miterlimit="4"/><path stroke-linecap="butt" transform="matrix(0, -1.193931, 1.193931, 0, 363.066777, 217.171743)" fill="none" stroke-linejoin="miter" d="M -0.000110945 4.998933 L 82.464503 4.998933 " stroke="#404040" stroke-width="10" stroke-opacity="1" stroke-miterlimit="4"/><path stroke-linecap="butt" transform="matrix(1.193931, 0, 0, 1.193931, 0.0134132, 246.158187)" fill="none" stroke-linejoin="miter" d="M -0.00141919 5.000893 L 84.432792 5.000893 " stroke="#404040" stroke-width="10" stroke-opacity="1" stroke-miterlimit="4"/><path stroke-linecap="butt" transform="matrix(0, 1.193931, -1.193931, 0, 11.945414, 156.066273)" fill="none" stroke-linejoin="miter" d="M 0.000111647 4.999328 L 82.464726 4.999328 " stroke="#404040" stroke-width="10" stroke-opacity="1" stroke-miterlimit="4"/></svg>