<?xml version="1.0" standalone="no"?>
<!DOCTYPE svg PUBLIC "-//W3C//DTD SVG 20010904//EN"
 "http://www.w3.org/TR/2001/REC-SVG-20010904/DTD/svg10.dtd">
<svg version="1.0" xmlns="http://www.w3.org/2000/svg"
 width="1563.000000pt" height="1563.000000pt" viewBox="0 0 1563.000000 1563.000000"
 preserveAspectRatio="xMidYMid meet">

<g transform="translate(0.000000,1563.000000) scale(0.100000,-0.100000)"
fill="#000000" stroke="none">
<path d="M2520 10903 l0 -837 -52 50 c-190 182 -382 281 -658 341 -122 26
-492 26 -635 -1 -268 -49 -491 -159 -672 -330 -271 -256 -421 -598 -485 -1106
-21 -165 -18 -671 5 -840 111 -828 495 -1292 1172 -1416 137 -25 458 -25 595
0 198 36 393 117 535 223 88 66 232 211 283 286 18 26 36 47 41 47 4 0 31
-105 60 -232 29 -128 55 -241 57 -250 5 -17 40 -18 550 -18 l544 0 0 2460 0
2460 -670 0 -670 0 0 -837z m-442 -1428 c233 -55 385 -245 436 -544 22 -132
22 -511 0 -642 -71 -415 -336 -614 -725 -545 -207 37 -349 172 -408 386 -31
111 -44 320 -37 585 7 268 24 372 82 492 66 139 189 234 344 267 86 19 230 19
308 1z"/>
<path d="M4350 11285 l0 -455 675 0 675 0 0 455 0 455 -675 0 -675 0 0 -455z"/>
<path d="M12250 11285 l0 -455 675 0 675 0 0 455 0 455 -675 0 -675 0 0 -455z"/>
<path d="M4350 8610 l0 -1790 675 0 675 0 0 1790 0 1790 -675 0 -675 0 0
-1790z"/>
<path d="M5780 10391 c0 -5 286 -791 636 -1747 350 -957 643 -1758 651 -1781
l15 -43 656 0 657 0 281 998 c236 836 285 997 299 997 15 0 62 -159 294 -995
l277 -995 658 0 659 0 657 1788 657 1787 -656 0 -656 0 -275 -1060 c-274
-1057 -275 -1060 -300 -1060 -26 0 -26 2 -289 1028 -145 565 -268 1042 -273
1060 l-9 32 -669 0 -669 0 -14 -47 c-8 -27 -135 -504 -283 -1060 l-268 -1013
-28 0 c-16 0 -28 3 -28 6 0 8 -507 1992 -527 2062 l-14 52 -720 0 c-412 0
-719 -4 -719 -9z"/>
<path d="M12250 8610 l0 -1790 675 0 675 0 0 1790 0 1790 -675 0 -675 0 0
-1790z"/>
<path d="M14090 7495 l0 -675 715 0 715 0 0 675 0 675 -715 0 -715 0 0 -675z"/>
<path d="M10939 6245 c-64 -20 -137 -71 -175 -122 -54 -71 -77 -145 -78 -248
0 -80 3 -96 27 -141 47 -85 135 -125 244 -110 64 9 109 33 123 67 18 42 30 36
30 -16 l0 -45 58 0 58 0 27 158 c15 86 27 160 27 165 0 4 -60 7 -133 7 l-133
0 -10 -60 -10 -60 58 0 c36 0 58 -4 58 -11 0 -24 -75 -86 -113 -93 -52 -10
-106 17 -129 64 -37 73 -14 220 45 287 77 88 203 84 227 -7 l11 -40 74 0 75 0
0 43 c0 59 -35 116 -90 147 -37 20 -61 25 -135 27 -59 2 -106 -2 -136 -12z"/>
<path d="M9812 5953 c-29 -164 -52 -304 -52 -310 0 -10 35 -13 143 -13 227 0
321 29 405 125 103 117 109 328 12 425 -57 57 -111 70 -300 70 l-156 0 -52
-297z m348 162 c41 -21 60 -63 60 -133 0 -69 -13 -114 -47 -160 -34 -45 -74
-63 -159 -69 -72 -6 -74 -5 -74 17 0 21 42 278 55 338 5 20 11 22 71 22 39 0
77 -6 94 -15z"/>
<path d="M10505 6238 c-4 -15 -105 -589 -105 -601 0 -4 35 -7 77 -5 l78 3 52
290 c28 160 52 298 52 308 1 15 -9 17 -74 17 -52 0 -77 -4 -80 -12z"/>
<path d="M11430 6243 c0 -11 -98 -562 -105 -590 -5 -22 -3 -23 75 -23 44 0 80
2 80 5 0 10 101 581 106 598 5 15 -3 17 -75 17 -45 0 -81 -3 -81 -7z"/>
<path d="M11621 6200 c-6 -28 -11 -55 -11 -60 0 -6 43 -10 100 -10 55 0 100
-3 100 -7 0 -5 -20 -117 -43 -250 l-43 -243 77 0 c76 0 77 0 83 28 3 15 22
119 41 232 20 113 38 213 41 223 5 15 19 17 104 17 l98 0 11 50 c6 28 11 55
11 60 0 6 -109 10 -279 10 l-279 0 -11 -50z"/>
<path d="M12224 5948 c-87 -166 -160 -306 -162 -310 -2 -4 34 -8 80 -8 l84 0
39 83 40 82 100 0 100 0 7 -50 c5 -27 10 -65 13 -82 l6 -33 85 0 86 0 -6 28
c-3 15 -26 144 -51 287 -25 143 -48 270 -50 283 -5 21 -10 22 -108 22 l-104 0
-159 -302z m250 67 c4 -33 9 -68 12 -77 5 -16 -2 -18 -55 -18 -34 0 -61 2 -61
5 0 3 19 43 42 90 25 50 45 80 49 72 4 -6 10 -39 13 -72z"/>
<path d="M12782 5953 c-29 -164 -52 -304 -52 -310 0 -10 53 -13 234 -13 l233
0 7 43 c4 23 9 52 13 65 l5 22 -156 0 c-142 0 -156 2 -156 18 0 9 18 118 40
242 22 123 40 226 40 227 0 2 -35 3 -78 3 l-78 0 -52 -297z"/>
<path d="M13420 6208 c0 -24 9 -158 20 -298 11 -140 20 -261 20 -268 0 -10 25
-12 107 -10 l107 3 76 217 c41 119 79 220 83 224 4 4 7 -95 7 -220 l0 -227
106 3 105 3 130 304 c71 167 129 305 129 307 0 2 -38 4 -84 4 l-85 0 -19 -52
c-10 -29 -48 -137 -83 -240 -59 -173 -81 -223 -73 -165 2 12 5 118 8 235 l4
213 -116 -3 -116 -3 -76 -230 -75 -230 -6 55 c-4 30 -7 137 -8 238 l-1 182
-80 0 -80 0 0 -42z"/>
<path d="M14340 6243 c0 -11 -98 -562 -105 -590 -5 -22 -3 -23 75 -23 44 0 80
2 80 5 0 10 101 581 106 598 5 15 -3 17 -75 17 -45 0 -81 -3 -81 -7z"/>
<path d="M14590 6243 c0 -11 -98 -562 -105 -590 l-5 -23 238 0 239 0 9 65 10
65 -152 0 c-84 0 -155 3 -157 8 -3 6 50 320 76 450 l7 32 -80 0 c-44 0 -80 -3
-80 -7z"/>
<path d="M15115 6228 c-2 -13 -25 -140 -50 -283 -25 -143 -48 -272 -51 -287
l-6 -28 235 0 c263 0 241 -7 253 80 l7 50 -151 0 c-83 0 -153 3 -156 8 -2 4
13 106 35 227 21 121 39 228 39 238 0 15 -10 17 -75 17 -69 0 -75 -2 -80 -22z"/>
</g>
</svg>
