<svg xmlns="http://www.w3.org/2000/svg"
 width="1554.000000pt" height="617.000000pt" viewBox="0 0 1554.000000 617.000000"
 preserveAspectRatio="xMidYMid meet" >

<g transform="translate(0.000000,617.000000) scale(0.100000,-0.100000)">
<path d="M2520 5315 c0 -459 -3 -835 -6 -835 -3 0 -39 31 -80 69 -175 164
-417 279 -668 318 -137 21 -409 21 -546 -1 -608 -96 -1007 -494 -1154 -1151
-54 -242 -60 -315 -61 -690 0 -288 3 -372 18 -474 70 -477 208 -786 462 -1036
211 -208 462 -324 789 -365 126 -16 430 -8 544 15 180 35 373 118 509 219 87
64 205 181 271 270 32 43 54 63 57 55 2 -8 28 -120 58 -249 l53 -235 552 -3
552 -2 -2 2462 -3 2463 -672 3 -673 2 0 -835z m-399 -1454 c137 -43 238 -133
309 -276 75 -153 100 -296 100 -575 0 -281 -25 -422 -102 -579 -73 -148 -198
-249 -346 -280 -76 -16 -256 -13 -331 4 -142 34 -254 124 -321 257 -69 139
-75 183 -75 598 0 310 3 376 17 439 21 88 64 185 114 252 61 84 196 159 324
179 84 13 235 4 311 -19z"/>
<path d="M4350 5690 l0 -460 675 0 675 0 0 460 0 460 -675 0 -675 0 0 -460z"/>
<path d="M12250 5690 l0 -460 675 0 675 0 0 460 0 460 -675 0 -675 0 0 -460z"/>
<path d="M4350 3015 l0 -1795 675 0 675 0 0 1795 0 1795 -675 0 -675 0 0
-1795z"/>
<path d="M5775 4789 c4 -11 298 -818 655 -1792 l648 -1772 661 -3 c363 -1 661
0 661 2 0 5 538 1912 551 1954 6 17 17 32 24 32 17 0 -10 94 306 -1042 l263
-948 660 0 661 0 654 1783 c360 980 656 1788 659 1795 3 9 -132 12 -652 12
l-656 0 -9 -22 c-5 -13 -129 -490 -277 -1060 -267 -1029 -269 -1038 -294
-1038 -25 0 -27 7 -284 1013 -143 556 -266 1033 -273 1060 l-14 47 -671 -2
-671 -3 -281 -1057 c-280 -1054 -281 -1058 -307 -1058 -25 0 -25 1 -295 1058
l-271 1057 -727 3 -727 2 6 -21z"/>
<path d="M12250 3015 l0 -1795 675 0 675 0 0 1795 0 1795 -675 0 -675 0 0
-1795z"/>
<path d="M14080 1895 l0 -675 720 0 720 0 0 675 0 675 -720 0 -720 0 0 -675z"/>
<path d="M10980 660 c-116 -25 -228 -118 -271 -228 -19 -46 -23 -77 -24 -157
0 -88 3 -105 25 -145 14 -24 44 -57 67 -74 35 -24 54 -30 117 -34 95 -6 155
14 185 61 l21 32 0 -42 0 -43 65 0 64 0 6 33 c3 17 16 92 29 164 l23 133 -137
0 -138 0 -7 -37 c-3 -21 -9 -48 -12 -60 -5 -22 -2 -23 56 -23 l62 0 -18 -31
c-25 -43 -72 -69 -124 -69 -57 0 -83 19 -105 75 -32 84 4 236 68 290 35 30
100 48 139 40 34 -8 69 -48 69 -81 0 -23 2 -24 85 -24 81 0 85 1 85 23 0 74
-52 154 -118 180 -49 20 -156 28 -212 17z"/>
<path d="M9856 623 c-3 -16 -26 -145 -51 -288 -25 -143 -47 -271 -50 -283 l-6
-24 188 4 c211 5 244 13 328 76 36 27 60 56 85 106 33 65 35 74 35 170 0 116
-17 162 -80 214 -54 44 -95 52 -278 52 l-165 0 -6 -27z m312 -114 c32 -20 52
-69 52 -126 0 -97 -46 -180 -116 -209 -35 -15 -164 -20 -164 -6 0 4 14 83 30
177 17 93 30 173 30 178 0 14 142 2 168 -14z"/>
<path d="M10500 638 c0 -7 -24 -147 -53 -310 l-53 -298 81 0 82 0 43 243 c23
133 48 272 55 310 l13 67 -84 0 c-60 0 -84 -4 -84 -12z"/>
<path d="M11425 628 c-3 -13 -25 -140 -50 -283 -25 -143 -48 -272 -51 -288
l-6 -27 81 0 c67 0 80 3 85 18 5 16 106 587 106 597 0 3 -36 5 -80 5 -74 0
-80 -1 -85 -22z"/>
<path d="M11626 642 c-3 -5 -8 -32 -12 -60 l-7 -52 102 0 c100 0 101 0 96 -22
-3 -13 -21 -113 -40 -223 -19 -110 -38 -213 -41 -228 l-6 -28 83 3 83 3 27
155 c16 85 35 197 44 248 l17 92 98 0 c55 0 101 4 104 8 3 5 8 32 12 60 l7 52
-281 0 c-155 0 -283 -4 -286 -8z"/>
<path d="M12332 558 c-118 -222 -272 -516 -272 -522 0 -3 37 -6 83 -6 l83 0
39 80 39 80 98 0 c54 0 98 -1 99 -2 0 -2 6 -37 12 -78 l12 -75 88 -3 c48 -1
87 1 87 5 0 4 -23 144 -52 310 l-53 303 -107 0 -106 0 -50 -92z m143 -180 l7
-58 -55 0 -56 0 42 92 c41 90 42 91 49 57 3 -19 10 -60 13 -91z"/>
<path d="M12826 623 c-3 -16 -26 -145 -51 -288 -25 -143 -47 -270 -50 -282
l-5 -23 239 0 239 0 11 50 c21 97 32 90 -144 90 -85 0 -155 1 -155 3 0 1 18
104 40 227 22 124 40 231 40 238 0 8 -22 12 -79 12 -79 0 -79 0 -85 -27z"/>
<path d="M13414 603 c3 -27 13 -151 21 -278 9 -126 18 -245 21 -263 l5 -32
107 0 108 0 76 218 77 217 0 -218 1 -218 112 3 112 3 132 308 132 308 -91 -3
-91 -3 -83 -235 -83 -235 6 238 6 238 -118 -3 -118 -3 -77 -235 -77 -234 -7
237 -7 237 -85 0 -85 0 6 -47z"/>
<path d="M14335 628 c-3 -13 -25 -140 -50 -283 -25 -143 -48 -272 -51 -288
l-6 -27 81 0 c67 0 80 3 85 18 5 16 106 587 106 597 0 3 -36 5 -80 5 -74 0
-80 -1 -85 -22z"/>
<path d="M14585 628 c-3 -13 -25 -140 -50 -283 -25 -143 -48 -272 -51 -288
l-6 -27 240 0 240 0 11 63 c6 35 11 67 11 70 0 4 -70 7 -155 7 -100 0 -155 4
-155 10 0 6 18 112 40 235 22 123 40 227 40 230 0 3 -36 5 -80 5 -74 0 -80 -1
-85 -22z"/>
<path d="M15115 638 c-6 -16 -105 -581 -105 -596 0 -9 64 -12 239 -12 l239 0
7 48 c3 26 9 57 12 70 l5 22 -156 0 c-140 0 -156 2 -156 17 0 15 64 389 75
441 5 21 3 22 -75 22 -56 0 -82 -4 -85 -12z"/>
</g>
</svg>
